<?xml version="1.0" standalone="no"?>
<!DOCTYPE svg PUBLIC "-//W3C//DTD SVG 20010904//EN"
 "http://www.w3.org/TR/2001/REC-SVG-20010904/DTD/svg10.dtd">
<svg version="1.0" xmlns="http://www.w3.org/2000/svg"
 width="1312.000000pt" height="1312.000000pt" viewBox="0 0 1312.000000 1312.000000"
 preserveAspectRatio="xMidYMid meet">
<metadata>
Created by potrace 1.14, written by Peter Selinger 2001-2017
</metadata>
<g transform="translate(0.000000,1312.000000) scale(0.100000,-0.100000)"
fill="#000000" stroke="none">
<path d="M6849 13095 c-87 -28 -150 -84 -219 -195 -19 -30 -57 -91 -85 -135
-77 -120 -842 -1332 -900 -1425 -27 -44 -237 -375 -465 -736 -228 -360 -428
-681 -445 -712 -27 -52 -30 -66 -30 -152 0 -112 -9 -91 209 -494 24 -45 74
-139 111 -211 37 -71 75 -143 85 -160 10 -16 46 -84 80 -150 35 -66 80 -151
100 -190 97 -183 321 -605 432 -815 75 -140 138 -259 164 -308 13 -23 57 -106
98 -185 42 -78 102 -191 134 -252 32 -60 58 -111 57 -113 -2 -2 -146 36 -321
83 -176 48 -400 108 -499 135 -207 56 -425 115 -850 230 -165 45 -343 92 -395
106 -52 14 -183 49 -290 79 -107 29 -227 60 -266 70 -104 24 -205 9 -281 -42
-23 -16 -224 -208 -448 -428 -224 -220 -470 -462 -548 -539 -78 -76 -344 -338
-592 -581 -247 -244 -502 -493 -565 -555 -518 -503 -546 -537 -557 -667 -5
-73 -10 -52 171 -743 30 -113 70 -268 90 -345 20 -77 52 -198 71 -270 19 -71
100 -380 180 -685 205 -784 221 -843 277 -1055 148 -565 136 -528 198 -598 59
-66 108 -92 251 -131 364 -99 1476 -399 2064 -557 143 -39 307 -83 365 -99
1073 -296 1059 -293 1181 -232 70 34 36 2 812 766 236 231 495 486 577 566 81
80 349 343 595 585 246 242 500 492 564 555 129 126 160 165 183 225 31 80 31
141 -1 265 -43 170 -97 376 -141 540 -21 80 -54 206 -74 280 -19 74 -91 351
-161 615 -69 264 -164 625 -211 803 -46 177 -122 468 -169 646 -47 178 -85
329 -85 335 0 12 21 12 515 -4 197 -7 363 -13 565 -20 85 -3 227 -7 315 -10
88 -3 221 -7 295 -10 74 -2 221 -7 325 -10 105 -4 228 -8 275 -10 47 -2 186
-7 310 -10 124 -4 267 -8 319 -10 102 -5 158 4 224 35 86 41 115 80 408 547
20 32 107 171 194 308 87 138 222 351 300 475 78 124 370 587 649 1028 280
442 516 823 526 845 25 58 34 142 20 202 -10 45 -55 143 -130 280 -15 28 -50
93 -77 145 -28 52 -90 169 -138 260 -48 91 -110 208 -138 260 -27 52 -64 122
-82 155 -18 33 -55 103 -82 155 -28 52 -68 129 -90 170 -51 95 -112 209 -175
330 -28 52 -67 127 -88 165 -20 39 -61 115 -90 170 -61 116 -96 181 -212 400
-47 88 -111 210 -143 270 -203 384 -276 516 -300 544 -38 42 -110 87 -165 101
-48 13 -61 14 -385 24 -115 4 -250 9 -300 11 -49 2 -178 7 -285 10 -552 17
-797 25 -915 30 -60 3 -200 7 -310 10 -110 3 -252 8 -315 10 -63 2 -200 7
-305 10 -104 4 -228 8 -275 10 -47 2 -211 6 -365 9 -231 5 -288 3 -326 -9z"/>
</g>
</svg>
